<?xml version="1.0" encoding="UTF-8" standalone="no"?>
<!-- Generator: Adobe Illustrator 23.0.3, SVG Export Plug-In . SVG Version: 6.00 Build 0)  -->

<svg
   version="1.1"
   id="Layer_1"
   x="0px"
   y="0px"
   viewBox="0 0 24 24"
   style="enable-background:new 0 0 24 24;"
   xml:space="preserve"
   sodipodi:docname="color_pianohighlight.svg"
   inkscape:version="1.1.2 (0a00cf5339, 2022-02-04)"
   xmlns:inkscape="http://www.inkscape.org/namespaces/inkscape"
   xmlns:sodipodi="http://sodipodi.sourceforge.net/DTD/sodipodi-0.dtd"
   xmlns="http://www.w3.org/2000/svg"
   xmlns:svg="http://www.w3.org/2000/svg"><defs
   id="defs17" /><sodipodi:namedview
   id="namedview15"
   pagecolor="#ffffff"
   bordercolor="#666666"
   borderopacity="1.0"
   inkscape:pageshadow="2"
   inkscape:pageopacity="0.0"
   inkscape:pagecheckerboard="0"
   showgrid="false"
   inkscape:zoom="22.627417"
   inkscape:cx="20.196737"
   inkscape:cy="7.2699416"
   inkscape:window-width="1920"
   inkscape:window-height="1023"
   inkscape:window-x="0"
   inkscape:window-y="29"
   inkscape:window-maximized="1"
   inkscape:current-layer="Layer_1" />
<style
   type="text/css"
   id="style2">
	.st0{fill:none;}
	.st1{fill:#3B3F45;}
</style>




<path
   style="fill:#000000;stroke-width:0.157672"
   id="path6486"
   d="" /><path
   style="fill:#000000;stroke-width:0.157672"
   id="path6466"
   d="" /><path
   style="fill:#000000;stroke-width:0.157672"
   id="path6446"
   d="" /><path
   style="fill:#000000;stroke-width:0.162359"
   d="m 1.0561991,13.212419 0.040195,-8.1477301 0.04516,7.5430411 c 0.031968,5.339558 0.1006856,7.605955 0.2352386,7.758413 0.1474397,0.16706 0.7010557,0.20558 2.4679288,0.171719 l 2.2778502,-0.04365 0.045775,-2.707555 0.04577,-2.707554 -0.8829142,-0.04772 -0.8829149,-0.04772 -0.044241,-4.920127 c -0.029211,-3.2485411 0.013452,-4.9201257 0.1255714,-4.9201257 0.1110171,0 0.169814,1.631735 0.169814,4.712711 0,5.4374177 -0.1719391,4.9884317 1.8389606,4.8020997 L 7.7131425,14.549358 V 9.8463802 c 0,-4.0951277 0.03277,-4.702978 0.253528,-4.702978 0.2219531,0 0.2480178,0.612753 0.2092855,4.9201258 l -0.044241,4.920127 -0.7154823,0.04859 -0.715482,0.04859 0.04577,2.706678 0.04577,2.706677 2.237116,0.04405 c 1.5067083,0.02967 2.3130083,-0.01518 2.4695673,-0.137362 0.181003,-0.141262 0.232453,-0.752136 0.232453,-2.759963 V 15.062386 H 10.81057 9.889714 v -4.959487 c 0,-4.3034711 0.033222,-4.9594881 0.251143,-4.9594881 0.217646,0 0.251142,0.6287438 0.251142,4.7140298 0,2.8047313 0.06437,4.7514393 0.158927,4.8063933 0.08741,0.05079 0.765494,0.0448 1.506856,-0.01335 l 1.347929,-0.105715 V 9.8440878 c 0,-4.0734238 0.03352,-4.7006849 0.251143,-4.7006849 0.217922,0 0.251142,0.656017 0.251142,4.9594881 v 4.959487 H 12.98714 12.066284 v 2.578548 c 0,2.007829 0.05145,2.618703 0.232452,2.759963 0.156559,0.122184 0.962859,0.167032 2.469569,0.137362 l 2.237116,-0.04405 0.04577,-2.706678 0.04577,-2.706678 -0.715483,-0.04859 -0.715482,-0.04859 -0.04424,-4.920127 c -0.03874,-4.3073731 -0.01267,-4.9201261 0.209285,-4.9201261 0.220774,0 0.253528,0.6090319 0.253528,4.7140298 0,2.6152823 0.06693,4.7529263 0.150325,4.8013943 0.08268,0.04805 0.723092,0.04184 1.423142,-0.01382 l 1.272816,-0.101178 V 9.8436227 c 0,-4.0926633 0.03277,-4.7002187 0.253528,-4.7002187 0.221955,0 0.248018,0.612753 0.209286,4.920126 l -0.04424,4.920127 -0.882916,0.04772 -0.882913,0.04772 0.04578,2.707554 0.04578,2.707555 2.237116,0.04405 c 1.50671,0.02967 2.313011,-0.01517 2.46957,-0.137361 0.192394,-0.150153 0.232452,-1.480412 0.232452,-7.719451 0,-4.9203946 0.05814,-7.5380362 0.167428,-7.5380362 0.109292,0 0.167429,2.6209703 0.167429,7.5480222 0,4.862182 0.05957,7.582647 0.167428,7.645328 0.09208,0.05351 0.167429,0.305675 0.167429,0.560347 v 0.46304 H 12.149994 1.0160044 Z"
   id="path8070" /><path
   style="fill:#000000;stroke-width:0.186118"
   d="M 15.660012,9.8866336 V 5.049182 h 1.826001 1.826 v 4.8374516 4.8374494 h -1.826 -1.826001 z"
   id="path8094" /><path
   style="fill:#000000;stroke-width:0.189538"
   d="M 9.9296315,9.9482697 V 5.0156734 h 1.9664265 1.966427 V 9.9482697 14.880865 H 11.896058 9.9296315 Z"
   id="path8092" /><path
   style="fill:#000000;stroke-width:0.183298"
   d="M 4.4482876,10.078088 V 5.172511 h 1.746486 1.746486 v 4.905577 4.905575 h -1.746486 -1.746486 z"
   id="path7710" /><path
   style="fill:#000000;stroke-width:0.348452"
   id="path7490"
   d="" /><path
   style="fill:#000000;stroke-width:0.348452"
   id="path7470"
   d="" /></svg>
