<?xml version="1.0" encoding="UTF-8" standalone="no"?>
<svg
   width="24px"
   height="24px"
   viewBox="0 0 24 24"
   version="1.1"
   id="svg147"
   sodipodi:docname="document-reload.svg"
   inkscape:version="1.2.2 (b0a8486541, 2022-12-01)"
   xmlns:inkscape="http://www.inkscape.org/namespaces/inkscape"
   xmlns:sodipodi="http://sodipodi.sourceforge.net/DTD/sodipodi-0.dtd"
   xmlns="http://www.w3.org/2000/svg"
   xmlns:svg="http://www.w3.org/2000/svg"
   xmlns:rdf="http://www.w3.org/1999/02/22-rdf-syntax-ns#"
   xmlns:cc="http://creativecommons.org/ns#"
   xmlns:dc="http://purl.org/dc/elements/1.1/">
  <sodipodi:namedview
     id="namedview149"
     pagecolor="#ffffff"
     bordercolor="#666666"
     borderopacity="1.0"
     inkscape:showpageshadow="2"
     inkscape:pageopacity="0.0"
     inkscape:pagecheckerboard="0"
     inkscape:deskcolor="#d1d1d1"
     showgrid="false"
     inkscape:zoom="36.958333"
     inkscape:cx="7.1837655"
     inkscape:cy="12"
     inkscape:window-width="2560"
     inkscape:window-height="1344"
     inkscape:window-x="0"
     inkscape:window-y="29"
     inkscape:window-maximized="1"
     inkscape:current-layer="svg147" />
  <!-- Generator: Sketch 41.2 (35397) - http://www.bohemiancoding.com/sketch -->
  <title
     id="title137">document-new</title>
  <desc
     id="desc139">Created with Sketch.</desc>
  <defs
     id="defs141" />
  <g
     id="Derived-24"
     stroke="none"
     stroke-width="1"
     fill="none"
     fill-rule="evenodd">
    <g
       id="document-new"
       fill="#3B3F45">
      <path
         d="M5.99,20 L6,20 C6,20.005444 5.99459356,20 5.99,20 Z M6.0099203,4 C6.00997234,4.00035953 6,20 6,20 L18,20 L18,8.82842712 L13.1715729,4 L6.0099203,4 Z M14,2 L20,8 L20,20 C20,21.105 19.105,22 18,22 L5.99,22 C4.885,22 4,21.105 4,20 L4.01,4 C4.01,2.895 4.895,2 6,2 L14,2 Z"
         id="path929" />
    </g>
  </g>
  <g
     id="Derived-24-3"
     stroke="none"
     stroke-width="1"
     fill="none"
     fill-rule="evenodd"
     transform="matrix(0.73325793,0,0,0.7027742,3.1292068,5.9246562)">
    <g
       id="view-refresh">
      <g
         id="ic_refresh_24px">
        <g
           id="Group">
          <path
             d="M 17.65,6.35 C 16.2,4.9 14.21,4 12,4 7.58,4 4.01,7.58 4.01,12 c 0,4.42 3.57,8 7.99,8 3.73,0 6.84,-2.55 7.73,-6 H 17.65 C 16.83,16.33 14.61,18 12,18 8.69,18 6,15.31 6,12 6,8.69 8.69,6 12,6 c 1.66,0 3.14,0.69 4.22,1.78 L 13,11 h 7 V 4 Z"
             id="Shape-6"
             fill="#3b3f45" />
          <polygon
             id="polygon9"
             points="0,24 0,0 24,0 24,24 " />
        </g>
      </g>
    </g>
  </g>
  <metadata
     id="metadata951">
    <rdf:RDF>
      <cc:Work
         rdf:about="">
        <dc:title>document-new</dc:title>
      </cc:Work>
    </rdf:RDF>
  </metadata>
</svg>
