<?xml version="1.0" encoding="UTF-8" standalone="no"?>
<svg
   width="24px"
   height="24px"
   viewBox="0 0 24 24"
   version="1.1"
   id="svg12"
   sodipodi:docname="export.svg"
   inkscape:version="1.2.2 (b0a8486541, 2022-12-01)"
   xmlns:inkscape="http://www.inkscape.org/namespaces/inkscape"
   xmlns:sodipodi="http://sodipodi.sourceforge.net/DTD/sodipodi-0.dtd"
   xmlns="http://www.w3.org/2000/svg"
   xmlns:svg="http://www.w3.org/2000/svg"
   xmlns:rdf="http://www.w3.org/1999/02/22-rdf-syntax-ns#"
   xmlns:cc="http://creativecommons.org/ns#"
   xmlns:dc="http://purl.org/dc/elements/1.1/">
  <sodipodi:namedview
     id="namedview14"
     pagecolor="#ffffff"
     bordercolor="#666666"
     borderopacity="1.0"
     inkscape:showpageshadow="2"
     inkscape:pageopacity="0.0"
     inkscape:pagecheckerboard="0"
     inkscape:deskcolor="#d1d1d1"
     showgrid="false"
     inkscape:zoom="26.133488"
     inkscape:cx="7.8443413"
     inkscape:cy="17.735864"
     inkscape:window-width="2560"
     inkscape:window-height="1344"
     inkscape:window-x="0"
     inkscape:window-y="29"
     inkscape:window-maximized="1"
     inkscape:current-layer="Derived-24" />
  <!-- Generator: Sketch 41.2 (35397) - http://www.bohemiancoding.com/sketch -->
  <title
     id="title2">document-new</title>
  <desc
     id="desc4">Created with Sketch.</desc>
  <defs
     id="defs6" />
  <g
     id="Derived-24"
     stroke="none"
     stroke-width="1"
     fill="none"
     fill-rule="evenodd">
    <path
       d="M 5.99,20 H 6 c 0,0.0054 -0.00541,0 -0.01,0 z M 6.0099203,4 C 6.0099723,4.0003595 6,20 6,20 H 18 V 8.8284271 L 13.171573,4 Z M 14,2 20,8 v 12 c 0,1.105 -0.895,2 -2,2 H 5.99 C 4.885,22 4,21.105 4,20 L 4.01,4 C 4.01,2.895 4.895,2 6,2 Z"
       id="Shape"
       style="fill:#3b3f45" />
    <path
       style="display:inline;fill:#3b3f45;fill-opacity:1;stroke-width:0.699432"
       d="m 16.652238,1.337516 c 0.679047,-0.116218 0.94069,-0.1189712 2.058309,-0.2995703 1.117623,-0.18059386 2.287537,-0.3699655 2.599819,-0.4208163 0.312275,-0.050855 0.567313,-0.089782 0.566747,-0.086512 -2.56e-4,0.0032 -0.122541,0.6794863 -0.271057,1.502694 -0.277968,1.5407085 -0.354315,2.1700755 -0.539588,3.2163967 -0.05948,0.3359325 -0.172443,1.213672 -0.188777,1.2667481 -0.116971,0.4178646 0.0027,0.886607 -0.443599,0.8622994 C 20.05759,7.3582528 20.008348,7.1534404 19.917066,6.9616665 19.878979,6.8816526 19.786901,6.2492012 19.738955,5.9384272 L 19.510191,4.4555931 16.111438,7.8543465 12.712684,11.253099 11.910957,10.451372 11.109227,9.6496431 14.499259,6.2596105 c 1.864516,-1.8645159 3.390077,-3.3971023 3.390043,-3.4058308 0,-0.00867 -1.14604,-0.172503 -1.562268,-0.2469445 C 15.740758,2.5019793 15.494037,2.5104292 15.237775,2.3551344 14.872982,2.1340688 14.971432,1.764379 15.056652,1.6613173 15.159336,1.5371343 15.341976,1.506857 15.580873,1.4664478 Z"
       id="path3011"
       inkscape:connector-curvature="0"
       sodipodi:nodetypes="csscsscscscccccssssscc" />
  </g>
  <metadata
     id="metadata357">
    <rdf:RDF>
      <cc:Work
         rdf:about="">
        <dc:title>document-new</dc:title>
      </cc:Work>
    </rdf:RDF>
  </metadata>
</svg>
